<svg xmlns="http://www.w3.org/2000/svg" data-name="Layer 1" viewBox="0 0 128 128" width="128" height="128"><path fill="#fbcd23" d="M92.91,59.61l-.9.05A9.62,9.62,0,0,0,90.2,56l.59-.67a1.75,1.75,0,0,0-.15-2.47h0a1.75,1.75,0,0,0-2.47.15l-.59.67a9.66,9.66,0,0,0-3.91-1.35l-.06-.9a1.75,1.75,0,0,0-1.86-1.64h0A1.75,1.75,0,0,0,80.1,51.6l.05.89a9.79,9.79,0,0,0-3.72,1.81l-.67-.59a1.75,1.75,0,0,0-2.32,2.63l.66.58a9.71,9.71,0,0,0-1.34,3.9l-.89.05a1.75,1.75,0,0,0-1.64,1.86h0a1.75,1.75,0,0,0,1.85,1.64l.9-.05A9.79,9.79,0,0,0,74.8,68l-.59.67a1.75,1.75,0,0,0,.15,2.47h0A1.75,1.75,0,0,0,76.84,71l.59-.67a9.74,9.74,0,0,0,3.91,1.34l.06.9a1.75,1.75,0,0,0,1.85,1.64h0a1.75,1.75,0,0,0,1.64-1.86l-.06-.89a9.71,9.71,0,0,0,3.71-1.81l.69.61a1.75,1.75,0,0,0,2.32-2.63l-.67-.6a9.79,9.79,0,0,0,1.34-3.91l.89-.05a1.75,1.75,0,0,0,1.64-1.86h0A1.75,1.75,0,0,0,92.91,59.61Zm-7,6.55a5.38,5.38,0,1,1-.53-8.7A5.4,5.4,0,0,1,85.92,66.17Z" class="color000000 svgShape"/><path fill="#fbcd23" d="M124,11H4a4,4,0,0,0-4,4v86a4,4,0,0,0,4,4H55v10H46.5a2,2,0,0,0,0,4h35a2,2,0,0,0,0-4H73V105h51a4,4,0,0,0,4-4V15A4,4,0,0,0,124,11ZM69,115H59V105H69Zm4-14H4V87h97.67a2,2,0,1,0,0-4H12V41H116V63a2,2,0,0,0,4,0V23a2,2,0,0,0-2-2H10a2,2,0,0,0-2,2V83H4V15H124V83H113.67a2,2,0,0,0,0,4H124v14ZM12,37V25H116V37Z" class="color000000 svgShape"/><path fill="#fbcd23" d="M18.5 56h16a2 2 0 0 0 0-4h-16a2 2 0 0 0 0 4zM18.5 64h26a2 2 0 0 0 0-4h-26a2 2 0 0 0 0 4zM48.5 68h-30a2 2 0 0 0 0 4h30a2 2 0 0 0 0-4zM111.36 60.73l-12-11.19a2 2 0 1 0-2.73 2.93l10.43 9.73L97 71.54a2 2 0 1 0 2.73 2.93l11.59-10.81a2 2 0 0 0 0-2.93zM68.46 49.64a2 2 0 0 0-2.83-.1l-12 11.19a2 2 0 0 0 0 2.93L65.23 74.46A2 2 0 1 0 68 71.54l-10-9.35 10.43-9.73A2 2 0 0 0 68.46 49.64zM110 29h-4a2 2 0 0 0 0 4h4a2 2 0 0 0 0-4zM98 29H94a2 2 0 0 0 0 4h4a2 2 0 0 0 0-4zM118 77a2 2 0 0 0 2-2V71a2 2 0 0 0-4 0v4A2 2 0 0 0 118 77z" class="color000000 svgShape"/><circle cx="64" cy="94" r="3" fill="#fbcd23" class="color000000 svgShape"/></svg>