<svg xmlns="http://www.w3.org/2000/svg" viewBox="0 0 60 60" width="60" height="60"><g fill="#fbcd23" class="color000000 svgShape" data-name="Outer Lines"><path d="M57,0H3A3,3,0,0,0,0,3V43a3,3,0,0,0,3,3H21v6H15a3,3,0,0,0-3,3v2a3,3,0,0,0,3,3H45a3,3,0,0,0,3-3V55a3,3,0,0,0-3-3H39V46H57a3,3,0,0,0,3-3V3A3,3,0,0,0,57,0ZM3,2H57a1,1,0,0,1,1,1V38H38.9l-.778-7H48a1,1,0,0,0,0-2H46V9a2,2,0,0,0-2-2H31V5a1,1,0,0,0-2,0V7H16a2,2,0,0,0-2,2V29H12a1,1,0,0,0,0,2h9.883l-.778,7H2V3A1,1,0,0,1,3,2ZM44,9V29H16V9ZM36.438,34H31V31h5.1ZM29,31v3H23.562l.333-3Zm-5.66,5H36.66l.223,2H23.117ZM46,55v2a1,1,0,0,1-1,1H15a1,1,0,0,1-1-1V55a1,1,0,0,1,1-1H45A1,1,0,0,1,46,55Zm-9-3H23V46H37Zm20-8H3a1,1,0,0,1-1-1V40H58v3A1,1,0,0,1,57,44Z" class="color000000 svgShape"/><path d="M21 17a3 3 0 1 0-3-3A3 3 0 0 0 21 17zm0-4a1 1 0 1 1-1 1A1 1 0 0 1 21 13zM20 25a1 1 0 0 0 0 2H40a1 1 0 0 0 0-2h-.332l-6.513-7.326A2.084 2.084 0 0 0 31.619 17a2.012 2.012 0 0 0-1.514.769l-1.512 1.913-.059-.063a1.977 1.977 0 0 0-2.964.1L21.191 25zm7.083-4l.841.89.713.786a1 1 0 1 0 1.48-1.344l-.149-.165L31.663 19l5.33 6H23.782zM27 50h6a1 1 0 0 0 0-2H27a1 1 0 0 0 0 2z" class="color000000 svgShape"/></g></svg>