<svg xmlns="http://www.w3.org/2000/svg" viewBox="0 0 60 60" width="60" height="60"><path fill="#fbcd23" d="M20 23a3 3 0 1 0 3 3 2.962 2.962 0 0 0-.336-1.351L24 23.164l1.336 1.485A2.962 2.962 0 0 0 25 26a3 3 0 1 0 3-3 2.974 2.974 0 0 0-1.219.265l-1.436-1.6 5.4-6a1 1 0 0 0-1.486-1.338L24 20.174l-5.257-5.843a1 1 0 0 0-1.486 1.338l5.4 6-1.436 1.6A2.974 2.974 0 0 0 20 23Zm9 3a1 1 0 1 1-1.72-.687c.007-.006.009-.015.016-.022A1 1 0 0 1 29 26Zm-9 1a1 1 0 1 1 .7-1.709c.007.007.009.016.016.022A1 1 0 0 1 20 27Z" class="color000000 svgShape"/><path fill="#fbcd23" d="M11 34h26a3 3 0 0 0 3-3v-3.5l8 6a2.5 2.5 0 0 0 4-2v-21a2.5 2.5 0 0 0-4-2l-8 6V11a3 3 0 0 0-3-3H11a3 3 0 0 0-3 3v20a3 3 0 0 0 3 3Zm38.2-23.9a.494.494 0 0 1 .525-.047.487.487 0 0 1 .275.447v21a.5.5 0 0 1-.8.4L40 25v-8ZM10 11a1 1 0 0 1 1-1h26a1 1 0 0 1 1 1v20a1 1 0 0 1-1 1H11a1 1 0 0 1-1-1Z" class="color000000 svgShape"/><path fill="#fbcd23" d="M56 0H4a4 4 0 0 0-4 4v42a4 4 0 0 0 4 4h19v3a5.006 5.006 0 0 1-5 5h-2a1 1 0 0 0 0 2h28a1 1 0 0 0 0-2h-2a5.006 5.006 0 0 1-5-5v-3h19a4 4 0 0 0 4-4V4a4 4 0 0 0-4-4ZM4 2h52a2 2 0 0 1 2 2v36H2V4a2 2 0 0 1 2-2Zm33.1 56H22.9a6.98 6.98 0 0 0 2.1-5v-3h10v3a6.98 6.98 0 0 0 2.1 5ZM56 48H4a2 2 0 0 1-2-2v-4h56v4a2 2 0 0 1-2 2Z" class="color000000 svgShape"/><path fill="#fbcd23" d="M32 44h-4a1 1 0 0 0 0 2h4a1 1 0 0 0 0-2zM13 15a1 1 0 0 0 1-1v-1a1 1 0 0 0-2 0v1a1 1 0 0 0 1 1zm0 5a1 1 0 0 0 1-1v-1a1 1 0 0 0-2 0v1a1 1 0 0 0 1 1zm0 5a1 1 0 0 0 1-1v-1a1 1 0 0 0-2 0v1a1 1 0 0 0 1 1zm0 5a1 1 0 0 0 1-1v-1a1 1 0 0 0-2 0v1a1 1 0 0 0 1 1zm22-15a1 1 0 0 0 1-1v-1a1 1 0 0 0-2 0v1a1 1 0 0 0 1 1zm0 5a1 1 0 0 0 1-1v-1a1 1 0 0 0-2 0v1a1 1 0 0 0 1 1zm0 5a1 1 0 0 0 1-1v-1a1 1 0 0 0-2 0v1a1 1 0 0 0 1 1zm0 5a1 1 0 0 0 1-1v-1a1 1 0 0 0-2 0v1a1 1 0 0 0 1 1z" class="color000000 svgShape"/></svg>